<svg width="100%" height="100%" id="svg" viewBox="0 0 1440 600" xmlns="http://www.w3.org/2000/svg" class="transition duration-300 ease-in-out delay-150">
    <defs>
        <linearGradient id="gradient" x1="50%" y1="100%" x2="50%" y2="0%">
            <stop offset="5%" stop-color="#ff8fb1"></stop>
            <stop offset="95%" stop-color="#fce2db"></stop>
        </linearGradient>
    </defs>
    <path d="M 0,700 C 0,700 0,140 0,140 C 113.50239234449762,153.41626794258374 227.00478468899524,166.8325358851675 335,157 C 442.99521531100476,147.1674641148325 545.4832535885167,114.08612440191388 619,123 C 692.5167464114833,131.91387559808612 737.0622009569379,182.82296650717706 831,190 C 924.9377990430621,197.17703349282294 1068.267942583732,160.62200956937798 1178,145 C 1287.732057416268,129.37799043062202 1363.8660287081339,134.68899521531102 1440,140 C 1440,140 1440,700 1440,700 Z" stroke="none" stroke-width="0" fill="url(#gradient)" fill-opacity="0.265" class="transition-all duration-300 ease-in-out delay-150 path-0" transform="rotate(-180 720 350)"></path>
    <defs>
        <linearGradient id="gradient" x1="50%" y1="100%" x2="50%" y2="0%">
            <stop offset="5%" stop-color="#ff8fb1"></stop>
            <stop offset="95%" stop-color="#fce2db"></stop>
        </linearGradient>
    </defs>
    <path d="M 0,700 C 0,700 0,280 0,280 C 86.35406698564591,267.92344497607655 172.70813397129183,255.8468899521531 260,257 C 347.29186602870817,258.1531100478469 435.52153110047857,272.53588516746413 552,267 C 668.4784688995214,261.46411483253587 813.2057416267942,236.00956937799046 916,242 C 1018.7942583732058,247.99043062200954 1079.6555023923445,285.42583732057415 1160,297 C 1240.3444976076555,308.57416267942585 1340.1722488038276,294.2870813397129 1440,280 C 1440,280 1440,700 1440,700 Z" stroke="none" stroke-width="0" fill="url(#gradient)" fill-opacity="0.4" class="transition-all duration-300 ease-in-out delay-150 path-1" transform="rotate(-180 720 350)"></path>
    <defs>
        <linearGradient id="gradient" x1="50%" y1="100%" x2="50%" y2="0%">
            <stop offset="5%" stop-color="#ff8fb1"></stop>
            <stop offset="95%" stop-color="#fce2db"></stop>
        </linearGradient>
    </defs>
    <path d="M 0,700 C 0,700 0,420 0,420 C 86.21052631578945,423.99043062200957 172.4210526315789,427.98086124401914 274,436 C 375.5789473684211,444.01913875598086 492.52631578947364,456.0669856459331 575,440 C 657.4736842105264,423.9330143540669 705.4736842105265,379.7511961722488 811,370 C 916.5263157894735,360.2488038277512 1079.578947368421,384.9282296650718 1194,399 C 1308.421052631579,413.0717703349282 1374.2105263157896,416.53588516746413 1440,420 C 1440,420 1440,700 1440,700 Z" stroke="none" stroke-width="0" fill="url(#gradient)" fill-opacity="0.53" class="transition-all duration-300 ease-in-out delay-150 path-2" transform="rotate(-180 720 350)"></path>
    <defs>
        <linearGradient id="gradient" x1="50%" y1="100%" x2="50%" y2="0%">
            <stop offset="5%" stop-color="#ff8fb1"></stop>
            <stop offset="95%" stop-color="#fce2db"></stop>
        </linearGradient>
    </defs>
    <path d="M 0,700 C 0,700 0,560 0,560 C 106.94736842105263,572.9665071770335 213.89473684210526,585.933014354067 291,573 C 368.10526315789474,560.066985645933 415.3684210526317,521.2344497607655 522,523 C 628.6315789473683,524.7655502392345 794.6315789473683,567.1291866028708 905,579 C 1015.3684210526317,590.8708133971292 1070.1052631578948,572.2488038277512 1150,564 C 1229.8947368421052,555.7511961722488 1334.9473684210525,557.8755980861245 1440,560 C 1440,560 1440,700 1440,700 Z" stroke="none" stroke-width="0" fill="url(#gradient)" fill-opacity="1" class="transition-all duration-300 ease-in-out delay-150 path-3" transform="rotate(-180 720 350)"></path>
</svg>